<?xml version="1.0" encoding="UTF-8"?>
<svg id="Layer_1" xmlns="http://www.w3.org/2000/svg" version="1.1" viewBox="0 0 170.05 104.95">
  <!-- Generator: Adobe Illustrator 30.6.0, SVG Export Plug-In . SVG Version: 2.1.4 Build 109)  -->
  <defs>
    <style>
      .st0 {
        fill: #003a6e;
      }
    </style>
  </defs>
  <g>
    <path class="st0" d="M18.65,70.02c-.35,0-.75-.06-1.1-.17l-14.42-3.59c-.06,0-.06-.06-.12-.06-2.26-.75-3.48-3.01-2.84-5.33L16.79,3.05c.35-1.16,1.1-2.09,2.14-2.61.98-.46,2.14-.58,3.13-.29l14.37,3.53c.06,0,.06.06.12.06,2.26.75,3.48,3.01,2.84,5.33l-16.57,57.81v.06c-.58,1.85-2.26,3.07-4.17,3.07ZM20.97,66.31h0ZM4.22,62.55l14.37,3.53c.23.06.46-.06.52-.29L35.74,8.04c.06-.17-.06-.41-.29-.46l-14.37-3.59c-.06,0-.06-.06-.17-.06-.12-.06-.17,0-.23.06s-.17.12-.17.29L3.88,62.09c.06.17.12.35.35.46Z"/>
    <path class="st0" d="M151.48,70.02c-1.85,0-3.59-1.22-4.17-3.07v-.06l-16.63-57.81c-.58-2.26.58-4.52,2.84-5.33.06,0,.06-.06.12-.06l14.37-3.53c1.04-.29,2.14-.17,3.13.29,1.04.52,1.74,1.45,2.14,2.55l16.63,57.81c.58,2.26-.58,4.52-2.84,5.33-.06,0-.06.06-.12.06l-14.42,3.59c-.29.17-.64.23-1.04.23ZM151.08,65.79c.06.23.29.35.52.29l14.37-3.53c.17-.06.29-.29.23-.52l-16.63-57.81c-.06-.17-.17-.17-.17-.23-.06-.06-.17-.06-.23-.06s-.06.06-.17.06l-14.31,3.59c-.17.06-.29.29-.23.52l16.63,57.7Z"/>
  </g>
  <path class="st0" d="M132.89,69.79c-1.04,0-1.85-.87-1.91-1.85-.06-1.1.81-1.97,1.85-1.97.12,0,7.59-.29,14.77-3.82.98-.46,2.14-.06,2.61.93s.06,2.14-.93,2.61c-7.88,3.82-15.99,4.17-16.39,4.11.12,0,0,0,0,0Z"/>
  <path class="st0" d="M36.43,66.37c-3.07,0-8.23-.81-14.71-4.52-.93-.52-1.22-1.68-.64-2.66.52-.93,1.68-1.22,2.66-.64,9.15,5.39,14.89,3.82,15,3.82,1.04-.29,2.14.29,2.38,1.27.29,1.04-.29,2.14-1.27,2.43-.17,0-1.33.29-3.42.29Z"/>
  <path class="st0" d="M79.48,104.95c-2.78,0-5.45-1.1-7.47-3.07l-3.59-3.59c-.75-.75-.75-1.97,0-2.72.75-.75,1.97-.75,2.72,0l3.59,3.59c1.27,1.27,2.9,1.97,4.75,1.97h.06c1.74,0,3.48-.75,4.63-1.97l.06-.06c1.27-1.22,1.91-2.78,1.91-4.63,0-.87-.17-1.62-.46-2.55-.35-.87-.87-1.62-1.45-2.26-.75-.75-.75-1.97,0-2.72s1.97-.75,2.72,0l7.94,7.94c1.27,1.27,2.9,1.97,4.75,1.97h.06c1.74,0,3.48-.75,4.63-1.97,1.22-1.27,1.97-2.95,1.97-4.75,0-1.68-.75-3.48-1.97-4.75-.75-.75-.75-1.97.06-2.72.75-.75,1.97-.75,2.72.06,1.97,1.97,3.07,4.58,3.07,7.47s-1.1,5.5-3.07,7.47c-1.97,1.97-4.52,3.07-7.36,3.07h-.06c-2.78,0-5.45-1.1-7.47-3.07l-2.2-2.14c-.17,2.49-1.27,4.75-3.01,6.43-2.09,1.91-4.75,3.01-7.53,3.01h0Z"/>
  <path class="st0" d="M115.16,92.04h0c-2.78,0-5.45-1.1-7.47-3.07l-19.58-19.58c-.75-.75-.75-1.97,0-2.72s1.97-.75,2.72,0l19.58,19.58c1.27,1.27,2.9,1.97,4.63,1.97h.06c1.74,0,3.48-.64,4.75-1.97,1.27-1.27,1.97-2.9,1.97-4.63s-.64-3.48-1.97-4.75l-24.56-24.22c-.75-.75-.81-1.97-.06-2.72s1.97-.81,2.72-.06l24.56,24.22c1.97,1.97,3.07,4.63,3.07,7.47s-1.1,5.45-3.07,7.36c-1.91,2.14-4.52,3.13-7.36,3.13Z"/>
  <path class="st0" d="M124.37,77.03s-.06,0,0,0c-2.78,0-5.45-1.1-7.47-3.07-.75-.75-.75-1.97,0-2.72s1.97-.75,2.72,0c1.27,1.27,2.9,1.91,4.63,1.97h.06c1.74,0,3.48-.64,4.75-1.97.98-.98,1.62-2.38,1.85-3.65.06-.41.12-.75.12-1.04,0-1.74-.64-3.48-1.97-4.75l-31.05-30.99c-1.68-1.68-3.94-2.66-6.37-2.66-.75,0-1.51.12-2.49.29-1.56.41-3.01,1.33-4.17,2.55l-9.62,10.6-.06.06c-2.26,2.2-5.1,3.42-8.11,3.42s-5.97-1.22-8.17-3.42c-3.59-3.59-4.4-9.04-1.97-13.5,3.07-5.79,8.4-13.73,16.34-18.77,6.55-4.11,13.73-5.5,21.32-4.11,1.1.17,15.93,2.43,28.15,10.37.75.46,1.62.52,2.49.17l7.94-3.48c.98-.41,2.14.06,2.55.98s-.06,2.14-.98,2.55l-7.94,3.48c-1.97.93-4.34.64-6.2-.46-11.7-7.59-26.42-9.67-26.59-9.73h-.06c-6.6-1.22-12.86-.06-18.54,3.59-7.18,4.52-12.17,11.93-15,17.32-1.62,2.95-1.1,6.55,1.33,8.98,1.45,1.45,3.42,2.26,5.39,2.26s3.88-.81,5.39-2.26l9.62-10.49c1.62-1.74,3.71-3.07,5.97-3.71h.06c1.22-.29,2.38-.41,3.42-.41,3.48,0,6.66,1.33,9.1,3.82l31.05,31.05c1.97,1.97,3.07,4.63,3.07,7.47,0,.52-.06,1.1-.17,1.62-.35,2.14-1.39,4.17-2.95,5.74-1.97,1.74-4.63,2.9-7.42,2.9Z"/>
  <g>
    <path class="st0" d="M43.27,75.64c-1.91,0-3.82-.75-5.33-2.26-1.45-1.45-2.2-3.24-2.2-5.33s.81-3.88,2.2-5.33l6.55-6.55c2.9-2.9,7.7-2.9,10.66,0,1.45,1.45,2.2,3.24,2.2,5.33s-.81,3.88-2.2,5.33c-.75.75-1.97.75-2.72,0s-.75-1.97,0-2.72c.64-.64,1.1-1.62,1.1-2.55s-.41-1.85-1.1-2.55c-1.45-1.45-3.77-1.45-5.16,0l-6.55,6.55c-.64.64-1.1,1.62-1.1,2.55s.41,1.85,1.1,2.55c1.45,1.45,3.77,1.45,5.16,0,.75-.75,1.97-.75,2.72,0s.75,1.97,0,2.72c-1.51,1.62-3.48,2.26-5.33,2.26Z"/>
    <path class="st0" d="M48.77,85.95c-1.97,0-3.88-.81-5.33-2.2-2.9-2.9-2.9-7.7,0-10.66l8.98-8.98c2.9-2.9,7.7-2.9,10.66,0,1.45,1.45,2.2,3.24,2.2,5.33s-.81,3.88-2.2,5.33c-.75.75-1.97.75-2.72,0-.75-.75-.75-1.97,0-2.72.64-.64,1.1-1.62,1.1-2.55s-.41-1.85-1.1-2.55c-1.45-1.45-3.77-1.45-5.16,0l-8.98,8.98c-1.45,1.45-1.45,3.77,0,5.16.64.64,1.62,1.1,2.55,1.1.98,0,1.85-.41,2.55-1.1.75-.75,1.97-.75,2.72,0s.75,1.97,0,2.72c-1.39,1.33-3.24,2.14-5.27,2.14Z"/>
    <path class="st0" d="M54.04,96.5h-.12c-1.97-.06-3.82-.87-5.21-2.26-1.39-1.39-2.2-3.24-2.2-5.33,0-1.97.81-3.88,2.2-5.33l11.59-11.59c2.9-2.9,7.7-2.9,10.66,0,1.45,1.45,2.2,3.24,2.2,5.33s-.81,3.88-2.2,5.33l-11.59,11.59h0c-1.45,1.51-3.36,2.26-5.33,2.26ZM58.04,92.9h0ZM65.69,73.79c-.93,0-1.85.35-2.55,1.1l-11.64,11.47c-.64.64-1.1,1.62-1.1,2.55,0,.98.41,1.85,1.1,2.55.64.75,1.51,1.1,2.49,1.1h.06c.98,0,1.85-.41,2.66-1.1l11.59-11.59c.64-.64,1.1-1.62,1.1-2.55s-.41-1.85-1.1-2.55c-.75-.64-1.74-.98-2.61-.98Z"/>
    <path class="st0" d="M65.28,100.96c-1.91,0-3.82-.75-5.33-2.26s-2.2-3.24-2.2-5.33c0-1.97.81-3.88,2.2-5.33.75-.75,1.97-.75,2.72,0s.75,1.97,0,2.72c-.64.64-1.1,1.62-1.1,2.55,0,.98.41,1.85,1.1,2.55,1.45,1.45,3.77,1.45,5.16,0l8.23-8.23c1.45-1.45,1.45-3.77,0-5.16-1.45-1.45-3.77-1.45-5.16,0-.75.75-1.97.75-2.72,0s-.75-1.97,0-2.72c2.9-2.9,7.7-2.9,10.66,0,2.9,2.9,2.9,7.7,0,10.66l-8.23,8.23c-1.45,1.62-3.36,2.32-5.33,2.32Z"/>
  </g>
  <path class="st0" d="M45.41,22.64c-1.74,0-3.59-.52-5.16-1.51l-5.74-3.82c-.93-.58-1.16-1.74-.52-2.66.58-.93,1.74-1.16,2.66-.52l5.68,3.82c1.62,1.1,3.82,1.22,5.62.17,8.17-4.4,16.97-6.14,22.94-6.66,1.1-.12,1.97.64,2.14,1.68.12,1.1-.64,1.97-1.68,2.14-5.62.52-13.85,2.14-21.49,6.26-1.45.75-2.9,1.1-4.46,1.1Z"/>
  <g>
    <path class="st0" d="M20.79,35.09c-.17,0-.29-.06-.46-.06-1.04-.29-1.62-1.33-1.39-2.38L26.64,3.29c.29-1.04,1.33-1.62,2.38-1.39,1.04.29,1.62,1.33,1.39,2.38l-7.7,29.37c-.17.93-.98,1.45-1.91,1.45Z"/>
    <path class="st0" d="M149.4,35.09c-.87,0-1.62-.52-1.85-1.45l-7.7-29.37c-.29-1.04.35-2.14,1.39-2.38,1.04-.29,2.14.35,2.38,1.39l7.7,29.37c.29,1.04-.35,2.14-1.39,2.38-.23,0-.41.06-.52.06Z"/>
  </g>
</svg>